<mxfile host="app.diagrams.net" agent="Mozilla/5.0 (Windows NT 10.0; Win64; x64) AppleWebKit/537.36 (KHTML, like Gecko) Chrome/138.0.0.0 Safari/537.36" version="27.2.0">
  <diagram name="Page-1" id="oLLjG_u1hGccs61cY0yD">
    <mxGraphModel dx="1830" dy="1922" grid="1" gridSize="10" guides="1" tooltips="1" connect="1" arrows="1" fold="1" page="1" pageScale="1" pageWidth="827" pageHeight="1169" math="0" shadow="0">
      <root>
        <mxCell id="0" />
        <mxCell id="1" parent="0" />
        <mxCell id="GS3xTuFywnWEybeN_c-w-3" style="edgeStyle=orthogonalEdgeStyle;rounded=0;orthogonalLoop=1;jettySize=auto;html=1;exitX=1;exitY=0.5;exitDx=0;exitDy=0;entryX=0;entryY=0.5;entryDx=0;entryDy=0;" parent="1" source="GS3xTuFywnWEybeN_c-w-1" target="GS3xTuFywnWEybeN_c-w-2" edge="1">
          <mxGeometry relative="1" as="geometry" />
        </mxCell>
        <mxCell id="GS3xTuFywnWEybeN_c-w-9" style="edgeStyle=orthogonalEdgeStyle;rounded=0;orthogonalLoop=1;jettySize=auto;html=1;exitX=0.5;exitY=0;exitDx=0;exitDy=0;entryX=0;entryY=0.5;entryDx=0;entryDy=0;" parent="1" source="GS3xTuFywnWEybeN_c-w-1" target="GS3xTuFywnWEybeN_c-w-7" edge="1">
          <mxGeometry relative="1" as="geometry" />
        </mxCell>
        <mxCell id="GS3xTuFywnWEybeN_c-w-1" value="&lt;font style=&quot;color: rgb(255, 255, 255);&quot;&gt;Jakarta City is sinking with alarming rate&lt;/font&gt;" style="rounded=0;whiteSpace=wrap;html=1;fillColor=#CC0000;" parent="1" vertex="1">
          <mxGeometry x="80" y="120" width="120" height="60" as="geometry" />
        </mxCell>
        <mxCell id="GS3xTuFywnWEybeN_c-w-6" style="edgeStyle=orthogonalEdgeStyle;rounded=0;orthogonalLoop=1;jettySize=auto;html=1;exitX=1;exitY=0.5;exitDx=0;exitDy=0;entryX=0;entryY=0.5;entryDx=0;entryDy=0;" parent="1" source="GS3xTuFywnWEybeN_c-w-2" target="GS3xTuFywnWEybeN_c-w-5" edge="1">
          <mxGeometry relative="1" as="geometry" />
        </mxCell>
        <mxCell id="GS3xTuFywnWEybeN_c-w-19" style="edgeStyle=orthogonalEdgeStyle;rounded=0;orthogonalLoop=1;jettySize=auto;html=1;exitX=0.5;exitY=1;exitDx=0;exitDy=0;entryX=0.5;entryY=0;entryDx=0;entryDy=0;" parent="1" source="GS3xTuFywnWEybeN_c-w-2" target="GS3xTuFywnWEybeN_c-w-16" edge="1">
          <mxGeometry relative="1" as="geometry" />
        </mxCell>
        <mxCell id="GS3xTuFywnWEybeN_c-w-2" value="River flooding (mainly in Ciliwung River)" style="rounded=0;whiteSpace=wrap;html=1;" parent="1" vertex="1">
          <mxGeometry x="320" y="120" width="120" height="60" as="geometry" />
        </mxCell>
        <mxCell id="GS3xTuFywnWEybeN_c-w-4" value="because of" style="text;html=1;align=center;verticalAlign=middle;whiteSpace=wrap;rounded=0;" parent="1" vertex="1">
          <mxGeometry x="230" y="120" width="60" height="30" as="geometry" />
        </mxCell>
        <mxCell id="GS3xTuFywnWEybeN_c-w-5" value="Monsoon heavy rainfall (wet season)" style="rounded=0;whiteSpace=wrap;html=1;" parent="1" vertex="1">
          <mxGeometry x="560" y="120" width="120" height="60" as="geometry" />
        </mxCell>
        <mxCell id="GS3xTuFywnWEybeN_c-w-7" value="Jakarta, in the first place, is the watershed area" style="rounded=0;whiteSpace=wrap;html=1;" parent="1" vertex="1">
          <mxGeometry x="320" y="-20" width="120" height="60" as="geometry" />
        </mxCell>
        <mxCell id="GS3xTuFywnWEybeN_c-w-10" value="because of" style="text;html=1;align=center;verticalAlign=middle;whiteSpace=wrap;rounded=0;" parent="1" vertex="1">
          <mxGeometry x="210" y="-20" width="60" height="30" as="geometry" />
        </mxCell>
        <mxCell id="GS3xTuFywnWEybeN_c-w-13" style="edgeStyle=orthogonalEdgeStyle;rounded=0;orthogonalLoop=1;jettySize=auto;html=1;exitX=0.5;exitY=1;exitDx=0;exitDy=0;" parent="1" source="GS3xTuFywnWEybeN_c-w-11" target="GS3xTuFywnWEybeN_c-w-7" edge="1">
          <mxGeometry relative="1" as="geometry" />
        </mxCell>
        <mxCell id="GS3xTuFywnWEybeN_c-w-11" value="Netherlands government built canals" style="rounded=0;whiteSpace=wrap;html=1;" parent="1" vertex="1">
          <mxGeometry x="320" y="-180" width="120" height="60" as="geometry" />
        </mxCell>
        <mxCell id="GS3xTuFywnWEybeN_c-w-14" value="because of" style="text;html=1;align=center;verticalAlign=middle;whiteSpace=wrap;rounded=0;" parent="1" vertex="1">
          <mxGeometry x="320" y="-90" width="60" height="30" as="geometry" />
        </mxCell>
        <mxCell id="GS3xTuFywnWEybeN_c-w-15" value="because of" style="text;html=1;align=center;verticalAlign=middle;whiteSpace=wrap;rounded=0;" parent="1" vertex="1">
          <mxGeometry x="470" y="120" width="60" height="30" as="geometry" />
        </mxCell>
        <mxCell id="GS3xTuFywnWEybeN_c-w-20" style="edgeStyle=orthogonalEdgeStyle;rounded=0;orthogonalLoop=1;jettySize=auto;html=1;exitX=0.5;exitY=1;exitDx=0;exitDy=0;" parent="1" source="GS3xTuFywnWEybeN_c-w-16" target="GS3xTuFywnWEybeN_c-w-17" edge="1">
          <mxGeometry relative="1" as="geometry" />
        </mxCell>
        <mxCell id="GS3xTuFywnWEybeN_c-w-16" value="Increase runoff in the riverbanks" style="rounded=0;whiteSpace=wrap;html=1;" parent="1" vertex="1">
          <mxGeometry x="320" y="240" width="120" height="60" as="geometry" />
        </mxCell>
        <mxCell id="GS3xTuFywnWEybeN_c-w-21" style="edgeStyle=orthogonalEdgeStyle;rounded=0;orthogonalLoop=1;jettySize=auto;html=1;exitX=1;exitY=0.5;exitDx=0;exitDy=0;entryX=0;entryY=0.5;entryDx=0;entryDy=0;" parent="1" source="GS3xTuFywnWEybeN_c-w-17" target="GS3xTuFywnWEybeN_c-w-18" edge="1">
          <mxGeometry relative="1" as="geometry" />
        </mxCell>
        <mxCell id="GS3xTuFywnWEybeN_c-w-17" value="land use change (from vegetation to informal built-up area)" style="rounded=0;whiteSpace=wrap;html=1;" parent="1" vertex="1">
          <mxGeometry x="320" y="360" width="120" height="60" as="geometry" />
        </mxCell>
        <mxCell id="GS3xTuFywnWEybeN_c-w-18" value="rapid urbanization from rural to Jakarta" style="rounded=0;whiteSpace=wrap;html=1;" parent="1" vertex="1">
          <mxGeometry x="560" y="360" width="120" height="60" as="geometry" />
        </mxCell>
        <mxCell id="GS3xTuFywnWEybeN_c-w-22" value="because of" style="text;html=1;align=center;verticalAlign=middle;whiteSpace=wrap;rounded=0;" parent="1" vertex="1">
          <mxGeometry x="380" y="200" width="60" height="30" as="geometry" />
        </mxCell>
        <mxCell id="GS3xTuFywnWEybeN_c-w-23" value="because of" style="text;html=1;align=center;verticalAlign=middle;whiteSpace=wrap;rounded=0;" parent="1" vertex="1">
          <mxGeometry x="380" y="320" width="60" height="30" as="geometry" />
        </mxCell>
        <mxCell id="GS3xTuFywnWEybeN_c-w-24" value="because of" style="text;html=1;align=center;verticalAlign=middle;whiteSpace=wrap;rounded=0;" parent="1" vertex="1">
          <mxGeometry x="470" y="360" width="60" height="30" as="geometry" />
        </mxCell>
      </root>
    </mxGraphModel>
  </diagram>
</mxfile>
